# xmcd
#
# Track frame offsets: 
#        187
#        2747
#        18347
#        29390
#        43797
#        50340
#        62802
#        78027
#        90990
#        105935
#        119515
#        133380
#        146865
#
# Disc length: 2097 seconds
#
# Revision: 5
# Processed by: cddbd v1.5.2PL0 Copyright (c) Steve Scherf et al.
# Submitted via: ExactAudioCopy v1.0b3
#
DISCID=a6082f0d
DTITLE=Lincoln Mayorga and Distinguished Colleagues - The Missing Linc
DYEAR=1972
DGENRE=Jazz
TTITLE0=Chopin, Prelude In C Major, Op 28
TTITLE1=Limehouse Blues
TTITLE2=I Never Loved a Woman the Way I Love You
TTITLE3=Both Sides Now
TTITLE4=Chopin, Prelude In E Major, Op 28
TTITLE5=Brasil '57
TTITLE6=April Fools, The
TTITLE7=Norwegian Wood
TTITLE8=We've Only Just Begun
TTITLE9=Peace Train
TTITLE10=If
TTITLE11=Blackbird
TTITLE12=Love Rach
EXTD=more info - MillenniumMusicProjectFormat - SYNTAX=SongTitle{Subtit
EXTD=le}[miscInfo](Lyricist;Composer;Date,Artist,Location,State,Countr
EXTD=y)
EXTT0=
EXTT1=
EXTT2=
EXTT3=
EXTT4=
EXTT5=
EXTT6=
EXTT7=
EXTT8=
EXTT9=
EXTT10=
EXTT11=
EXTT12=
PLAYORDER=
